M48
INCH,TZ
T1C0.0295
T2C0.0300
T3C0.0315
T4C0.0354
T5C0.0394
T6C0.0512
T7C0.0787
%
G90
G05
T1
X22138Y-25634
X22638Y-25634
X23138Y-25634
X48472Y-38480
X48972Y-38480
X49472Y-38480
T2
X14449Y-41879
X14449Y-47279
X23249Y-41879
X23249Y-43079
X23249Y-46079
X23249Y-47279
T3
X22146Y-27831
X22146Y-30831
X38461Y-36024
X41461Y-36024
X48274Y-34805
X51274Y-34805
T4
X24329Y-27770
X24329Y-33770
X25329Y-27770
X25329Y-33770
X26329Y-27770
X26329Y-33770
X27329Y-27770
X27329Y-33770
X28329Y-27770
X28329Y-33770
X29329Y-27770
X29329Y-33770
X30329Y-27770
X30329Y-33770
X31329Y-27770
X31329Y-33770
X32329Y-27770
X32329Y-33770
X33329Y-27770
X33329Y-33770
X34329Y-27770
X34329Y-33770
X35329Y-27770
X35329Y-33770
X36329Y-27770
X36329Y-33770
X37329Y-27770
X37329Y-33770
X38329Y-27770
X38329Y-33770
X39329Y-27770
X39329Y-33770
X40329Y-27770
X40329Y-33770
X41329Y-27770
X41329Y-33770
X42329Y-27770
X42329Y-33770
X43329Y-27770
X43329Y-33770
T5
X19193Y-32661
X19193Y-33661
X19193Y-38085
X19193Y-39085
X23514Y-39075
X24514Y-39075
X28293Y-39075
X29293Y-39075
X29311Y-25197
X30311Y-25197
X31311Y-25197
X32311Y-25197
X32854Y-36024
X33169Y-39075
X33311Y-25197
X33854Y-36024
X34169Y-39075
X34311Y-25197
X34854Y-36024
X35311Y-25197
X35854Y-36024
X36311Y-25197
X37311Y-25197
X38081Y-39075
X38311Y-25197
X39081Y-39075
X39311Y-25197
X40311Y-25197
X41311Y-25197
X42311Y-25197
X43002Y-39075
X43311Y-25197
X44002Y-39075
X44311Y-25197
X54484Y-37738
X54484Y-38738
X54553Y-27465
X54553Y-28465
X54553Y-29465
X54553Y-33774
X54553Y-34774
T6
X18326Y-25593
X18326Y-27562
X20295Y-26578
T7
X27600Y-44400
X55946Y-44400
T0
M30
