%TF.GenerationSoftware,KiCad,Pcbnew,6.0.1*%
%TF.CreationDate,2022-09-08T21:04:12-04:00*%
%TF.ProjectId,Shot-Timer,53686f74-2d54-4696-9d65-722e6b696361,rev?*%
%TF.SameCoordinates,Original*%
%TF.FileFunction,Copper,L1,Top*%
%TF.FilePolarity,Positive*%
%FSLAX46Y46*%
G04 Gerber Fmt 4.6, Leading zero omitted, Abs format (unit mm)*
G04 Created by KiCad (PCBNEW 6.0.1) date 2022-09-08 21:04:12*
%MOMM*%
%LPD*%
G01*
G04 APERTURE LIST*
%TA.AperFunction,ComponentPad*%
%ADD10R,3.500000X3.500000*%
%TD*%
%TA.AperFunction,ComponentPad*%
%ADD11C,3.500000*%
%TD*%
%TA.AperFunction,ComponentPad*%
%ADD12R,1.700000X1.700000*%
%TD*%
%TA.AperFunction,ComponentPad*%
%ADD13O,1.700000X1.700000*%
%TD*%
%TA.AperFunction,ComponentPad*%
%ADD14C,1.524000*%
%TD*%
%TA.AperFunction,ComponentPad*%
%ADD15R,1.050000X1.500000*%
%TD*%
%TA.AperFunction,ComponentPad*%
%ADD16O,1.050000X1.500000*%
%TD*%
%TA.AperFunction,ComponentPad*%
%ADD17C,1.600000*%
%TD*%
%TA.AperFunction,ComponentPad*%
%ADD18O,1.600000X1.600000*%
%TD*%
%TA.AperFunction,ComponentPad*%
%ADD19C,2.340000*%
%TD*%
%TA.AperFunction,Conductor*%
%ADD20C,0.350000*%
%TD*%
%TA.AperFunction,Conductor*%
%ADD21C,0.250000*%
%TD*%
G04 APERTURE END LIST*
D10*
%TO.P,BT1,1,+*%
%TO.N,Net-(BT1-Pad1)*%
X70104000Y-112776000D03*
D11*
%TO.P,BT1,2,-*%
%TO.N,GND*%
X142104000Y-112776000D03*
%TD*%
D12*
%TO.P,SW5,1,1*%
%TO.N,GND*%
X109225000Y-99250000D03*
D13*
%TO.P,SW5,2,2*%
%TO.N,SET_OK*%
X111765000Y-99250000D03*
%TD*%
D12*
%TO.P,SW6,1,1*%
%TO.N,GND*%
X48750000Y-85500000D03*
D13*
%TO.P,SW6,2,2*%
%TO.N,START*%
X48750000Y-82960000D03*
%TD*%
D12*
%TO.P,SW3,1,1*%
%TO.N,GND*%
X84250000Y-99250000D03*
D13*
%TO.P,SW3,2,2*%
%TO.N,SET_UP*%
X86790000Y-99250000D03*
%TD*%
D12*
%TO.P,DS1,1,VSS*%
%TO.N,GND*%
X112550000Y-64000000D03*
D13*
%TO.P,DS1,2,VDD*%
%TO.N,+5V*%
X110010000Y-64000000D03*
%TO.P,DS1,3,VO*%
%TO.N,Net-(DS1-Pad3)*%
X107470000Y-64000000D03*
%TO.P,DS1,4,RS*%
%TO.N,LCD_RS*%
X104930000Y-64000000D03*
%TO.P,DS1,5,R/W*%
%TO.N,GND*%
X102390000Y-64000000D03*
%TO.P,DS1,6,E*%
%TO.N,LCD_EN*%
X99850000Y-64000000D03*
%TO.P,DS1,7,D0*%
%TO.N,unconnected-(DS1-Pad7)*%
X97310000Y-64000000D03*
%TO.P,DS1,8,D1*%
%TO.N,unconnected-(DS1-Pad8)*%
X94770000Y-64000000D03*
%TO.P,DS1,9,D2*%
%TO.N,unconnected-(DS1-Pad9)*%
X92230000Y-64000000D03*
%TO.P,DS1,10,D3*%
%TO.N,unconnected-(DS1-Pad10)*%
X89690000Y-64000000D03*
%TO.P,DS1,11,D4*%
%TO.N,LCD_D4*%
X87150000Y-64000000D03*
%TO.P,DS1,12,D5*%
%TO.N,LCD_D5*%
X84610000Y-64000000D03*
%TO.P,DS1,13,D6*%
%TO.N,LCD_D6*%
X82070000Y-64000000D03*
%TO.P,DS1,14,D7*%
%TO.N,LCD_D7*%
X79530000Y-64000000D03*
%TO.P,DS1,15,LED(+)*%
%TO.N,+5V*%
X76990000Y-64000000D03*
%TO.P,DS1,16,LED(-)*%
%TO.N,Net-(DS1-Pad16)*%
X74450000Y-64000000D03*
%TD*%
D12*
%TO.P,SW1,1,1*%
%TO.N,GND*%
X59725000Y-99250000D03*
D13*
%TO.P,SW1,2,2*%
%TO.N,MENU_UP*%
X62265000Y-99250000D03*
%TD*%
D12*
%TO.P,SW7,1,A*%
%TO.N,Net-(BT1-Pad1)*%
X48750000Y-99275000D03*
D13*
%TO.P,SW7,2,B*%
%TO.N,+5V*%
X48750000Y-96735000D03*
%TD*%
D14*
%TO.P,U1,3V3,3.3V*%
%TO.N,+3V3*%
X110055000Y-85775000D03*
%TO.N,N/C*%
X66875000Y-70535000D03*
%TO.P,U1,5V,5V*%
%TO.N,+5V*%
X104975000Y-85775000D03*
%TO.P,U1,G,GND*%
%TO.N,GND*%
X61795000Y-70535000D03*
X107515000Y-85775000D03*
X64335000Y-70535000D03*
%TO.P,U1,NRST,RESET*%
%TO.N,unconnected-(U1-PadNRST)*%
X69415000Y-70535000D03*
%TO.P,U1,PA0,PA0*%
%TO.N,unconnected-(U1-PadPA0)*%
X99895000Y-70535000D03*
%TO.P,U1,PA1,PA1*%
%TO.N,MIC*%
X97355000Y-70535000D03*
%TO.P,U1,PA2,PA2*%
%TO.N,LED2*%
X94815000Y-70535000D03*
%TO.P,U1,PA3,PA3*%
%TO.N,unconnected-(U1-PadPA3)*%
X92275000Y-70535000D03*
%TO.P,U1,PA4,PA4*%
%TO.N,unconnected-(U1-PadPA4)*%
X89735000Y-70535000D03*
%TO.P,U1,PA5,PA5*%
%TO.N,LCD_RS*%
X87195000Y-70535000D03*
%TO.P,U1,PA6,PA6*%
%TO.N,LCD_EN*%
X84655000Y-70535000D03*
%TO.P,U1,PA7,PA7*%
%TO.N,LCD_D4*%
X82115000Y-70535000D03*
%TO.P,U1,PA8,PA8*%
%TO.N,SET_OK*%
X71955000Y-85775000D03*
%TO.P,U1,PA9,PA9*%
%TO.N,RX1*%
X74495000Y-85775000D03*
%TO.P,U1,PA10,PA10*%
%TO.N,TX1*%
X77035000Y-85775000D03*
%TO.P,U1,PA11,PA11*%
%TO.N,unconnected-(U1-PadPA11)*%
X79575000Y-85775000D03*
%TO.P,U1,PA12,PA12*%
%TO.N,unconnected-(U1-PadPA12)*%
X82115000Y-85775000D03*
%TO.P,U1,PA15,PA15*%
%TO.N,START*%
X84655000Y-85775000D03*
%TO.P,U1,PB0,PB0*%
%TO.N,LCD_D5*%
X79575000Y-70535000D03*
%TO.P,U1,PB1,PB1*%
%TO.N,unconnected-(U1-PadPB1)*%
X77035000Y-70535000D03*
%TO.P,U1,PB3,PB3*%
%TO.N,unconnected-(U1-PadPB3)*%
X87195000Y-85775000D03*
%TO.P,U1,PB4,PB4*%
%TO.N,unconnected-(U1-PadPB4)*%
X89735000Y-85775000D03*
%TO.P,U1,PB5,PB5*%
%TO.N,unconnected-(U1-PadPB5)*%
X92275000Y-85775000D03*
%TO.P,U1,PB6,PB6*%
%TO.N,unconnected-(U1-PadPB6)*%
X94815000Y-85775000D03*
%TO.P,U1,PB7,PB7*%
%TO.N,unconnected-(U1-PadPB7)*%
X97355000Y-85775000D03*
%TO.P,U1,PB8,PB8*%
%TO.N,BUZZER*%
X99895000Y-85775000D03*
%TO.P,U1,PB9,PB9*%
%TO.N,LCD_BK*%
X102435000Y-85775000D03*
%TO.P,U1,PB10,PB10*%
%TO.N,LCD_D6*%
X74495000Y-70535000D03*
%TO.P,U1,PB11,PB11*%
%TO.N,LCD_D7*%
X71955000Y-70535000D03*
%TO.P,U1,PB12,PB12*%
%TO.N,MENU_UP*%
X61795000Y-85775000D03*
%TO.P,U1,PB13,PB13*%
%TO.N,MENU_DN*%
X64335000Y-85775000D03*
%TO.P,U1,PB14,PB14*%
%TO.N,SET_UP*%
X66875000Y-85775000D03*
%TO.P,U1,PB15,PB15*%
%TO.N,SET_DN*%
X69415000Y-85775000D03*
%TO.P,U1,PC13,PC13*%
%TO.N,unconnected-(U1-PadPC13)*%
X107515000Y-70535000D03*
%TO.P,U1,PC14,PC14*%
%TO.N,unconnected-(U1-PadPC14)*%
X104975000Y-70535000D03*
%TO.P,U1,PC15,PC15*%
%TO.N,unconnected-(U1-PadPC15)*%
X102435000Y-70535000D03*
%TO.P,U1,VBAT,Vbat*%
%TO.N,unconnected-(U1-PadVBAT)*%
X110055000Y-70535000D03*
%TD*%
D12*
%TO.P,U3,1,VCC*%
%TO.N,+3V3*%
X138565000Y-69760000D03*
D13*
%TO.P,U3,2,AUD*%
%TO.N,MIC*%
X138565000Y-72300000D03*
%TO.P,U3,3,GND*%
%TO.N,GND*%
X138565000Y-74840000D03*
%TD*%
D12*
%TO.P,D1,1,K*%
%TO.N,GND*%
X138565000Y-85785000D03*
D13*
%TO.P,D1,2,A*%
%TO.N,Net-(D1-Pad2)*%
X138565000Y-88325000D03*
%TD*%
D12*
%TO.P,J1,1,Pin_1*%
%TO.N,+3V3*%
X83450000Y-91500000D03*
D13*
%TO.P,J1,2,Pin_2*%
%TO.N,RX1*%
X85990000Y-91500000D03*
%TO.P,J1,3,Pin_3*%
%TO.N,TX1*%
X88530000Y-91500000D03*
%TO.P,J1,4,Pin_4*%
%TO.N,GND*%
X91070000Y-91500000D03*
%TD*%
D15*
%TO.P,Q1,1,E*%
%TO.N,GND*%
X56230000Y-65110000D03*
D16*
%TO.P,Q1,2,B*%
%TO.N,Net-(Q1-Pad2)*%
X57500000Y-65110000D03*
%TO.P,Q1,3,C*%
%TO.N,Net-(DS1-Pad16)*%
X58770000Y-65110000D03*
%TD*%
D12*
%TO.P,SW4,1,1*%
%TO.N,GND*%
X96725000Y-99250000D03*
D13*
%TO.P,SW4,2,2*%
%TO.N,SET_DN*%
X99265000Y-99250000D03*
%TD*%
D17*
%TO.P,R2,1*%
%TO.N,LED2*%
X97690000Y-91500000D03*
D18*
%TO.P,R2,2*%
%TO.N,Net-(D1-Pad2)*%
X105310000Y-91500000D03*
%TD*%
D17*
%TO.P,R1,1*%
%TO.N,LCD_BK*%
X56250000Y-78310000D03*
D18*
%TO.P,R1,2*%
%TO.N,Net-(Q1-Pad2)*%
X56250000Y-70690000D03*
%TD*%
D17*
%TO.P,R3,1*%
%TO.N,BUZZER*%
X130235000Y-88405000D03*
D18*
%TO.P,R3,2*%
%TO.N,Net-(Q2-Pad2)*%
X122615000Y-88405000D03*
%TD*%
D12*
%TO.P,BZ1,1,-*%
%TO.N,+5V*%
X138390000Y-95855000D03*
D13*
%TO.P,BZ1,2,+*%
%TO.N,Net-(BZ1-Pad2)*%
X138390000Y-98395000D03*
%TD*%
D12*
%TO.P,SW2,1,1*%
%TO.N,GND*%
X71865000Y-99250000D03*
D13*
%TO.P,SW2,2,2*%
%TO.N,MENU_DN*%
X74405000Y-99250000D03*
%TD*%
D14*
%TO.P,U2,1,VCC*%
%TO.N,USBP*%
X36701000Y-106372000D03*
%TO.P,U2,2,GND*%
%TO.N,GND*%
X36701000Y-120088000D03*
%TO.P,U2,3,OUTN*%
X59053000Y-120088000D03*
%TO.P,U2,4,BATN*%
X59053000Y-117040000D03*
%TO.P,U2,5,BATP*%
%TO.N,Net-(BT1-Pad1)*%
X59053000Y-109420000D03*
%TO.P,U2,6,OUTP*%
%TO.N,unconnected-(U2-Pad6)*%
X59053000Y-106372000D03*
%TD*%
D19*
%TO.P,RV1,1,1*%
%TO.N,+5V*%
X46549000Y-65007000D03*
%TO.P,RV1,2,2*%
%TO.N,Net-(DS1-Pad3)*%
X51549000Y-67507000D03*
%TO.P,RV1,3,3*%
%TO.N,GND*%
X46549000Y-70007000D03*
%TD*%
D15*
%TO.P,Q2,1,E*%
%TO.N,GND*%
X123120000Y-97740000D03*
D16*
%TO.P,Q2,2,B*%
%TO.N,Net-(Q2-Pad2)*%
X124390000Y-97740000D03*
%TO.P,Q2,3,C*%
%TO.N,Net-(BZ1-Pad2)*%
X125660000Y-97740000D03*
%TD*%
D20*
%TO.N,+5V*%
X46549000Y-65007000D02*
X49306000Y-62250000D01*
X49306000Y-62250000D02*
X75240000Y-62250000D01*
X75240000Y-62250000D02*
X76990000Y-64000000D01*
X48750000Y-96735000D02*
X44500000Y-92485000D01*
X44500000Y-92485000D02*
X44500000Y-67056000D01*
X44500000Y-67056000D02*
X46549000Y-65007000D01*
%TO.N,Net-(BT1-Pad1)*%
X49925300Y-100292300D02*
X59053000Y-109420000D01*
X49925300Y-99275000D02*
X49925300Y-100292300D01*
X59053000Y-109420000D02*
X64672700Y-109420000D01*
X64672700Y-109420000D02*
X68028700Y-112776000D01*
X48750000Y-99275000D02*
X49925300Y-99275000D01*
X70104000Y-112776000D02*
X68028700Y-112776000D01*
D21*
%TO.N,+5V*%
X78973200Y-62824700D02*
X78165300Y-63632600D01*
X108834700Y-64000000D02*
X108834700Y-63632700D01*
X108834700Y-63632700D02*
X108026700Y-62824700D01*
X76990000Y-64000000D02*
X78165300Y-64000000D01*
X110010000Y-64000000D02*
X108834700Y-64000000D01*
X108026700Y-62824700D02*
X78973200Y-62824700D01*
X78165300Y-63632600D02*
X78165300Y-64000000D01*
%TO.N,Net-(BZ1-Pad2)*%
X136559700Y-97740000D02*
X137214700Y-98395000D01*
X138390000Y-98395000D02*
X137214700Y-98395000D01*
X125660000Y-97740000D02*
X136559700Y-97740000D01*
%TO.N,Net-(D1-Pad2)*%
X105310000Y-91500000D02*
X134214700Y-91500000D01*
X138565000Y-88325000D02*
X137389700Y-88325000D01*
X134214700Y-91500000D02*
X137389700Y-88325000D01*
%TO.N,Net-(DS1-Pad3)*%
X103155000Y-67507000D02*
X106294700Y-64367300D01*
X106294700Y-64367300D02*
X106294700Y-64000000D01*
X51549000Y-67507000D02*
X103155000Y-67507000D01*
X107470000Y-64000000D02*
X106294700Y-64000000D01*
%TO.N,Net-(DS1-Pad16)*%
X58770000Y-65110000D02*
X72164700Y-65110000D01*
X72164700Y-65110000D02*
X73274700Y-64000000D01*
X74450000Y-64000000D02*
X73274700Y-64000000D01*
%TO.N,+3V3*%
X88037200Y-87720800D02*
X102054400Y-87720800D01*
X102054400Y-87720800D02*
X103705000Y-86070200D01*
X83450000Y-91500000D02*
X84625300Y-91500000D01*
X84625300Y-91500000D02*
X84625300Y-91132700D01*
X103705000Y-86070200D02*
X103705000Y-85465200D01*
X104486800Y-84683400D02*
X108963400Y-84683400D01*
X103705000Y-85465200D02*
X104486800Y-84683400D01*
X84625300Y-91132700D02*
X88037200Y-87720800D01*
X108963400Y-84683400D02*
X110055000Y-85775000D01*
%TO.N,LCD_BK*%
X56250000Y-78310000D02*
X83866900Y-78310000D01*
X91005000Y-85448100D02*
X91005000Y-86066900D01*
X101340000Y-86870000D02*
X102435000Y-85775000D01*
X91005000Y-86066900D02*
X91808100Y-86870000D01*
X91808100Y-86870000D02*
X101340000Y-86870000D01*
X83866900Y-78310000D02*
X91005000Y-85448100D01*
%TO.N,BUZZER*%
X130235000Y-88405000D02*
X126063000Y-84233000D01*
X101437000Y-84233000D02*
X99895000Y-85775000D01*
X126063000Y-84233000D02*
X101437000Y-84233000D01*
%TO.N,MENU_UP*%
X62265000Y-99250000D02*
X62265000Y-98074700D01*
X61795000Y-85775000D02*
X61795000Y-97604700D01*
X61795000Y-97604700D02*
X62265000Y-98074700D01*
%TO.N,MENU_DN*%
X74405000Y-98074700D02*
X64335000Y-88004700D01*
X74405000Y-99250000D02*
X74405000Y-98074700D01*
X64335000Y-88004700D02*
X64335000Y-85775000D01*
%TO.N,SET_UP*%
X77740500Y-96640500D02*
X83813200Y-96640500D01*
X66875000Y-85775000D02*
X77740500Y-96640500D01*
X86790000Y-99250000D02*
X85614700Y-99250000D01*
X85614700Y-98442000D02*
X85614700Y-99250000D01*
X83813200Y-96640500D02*
X85614700Y-98442000D01*
%TO.N,SET_DN*%
X99265000Y-99250000D02*
X98089700Y-99250000D01*
X98089700Y-98442000D02*
X92969700Y-93322000D01*
X76962000Y-93322000D02*
X69415000Y-85775000D01*
X92969700Y-93322000D02*
X76962000Y-93322000D01*
X98089700Y-99250000D02*
X98089700Y-98442000D01*
%TO.N,START*%
X81840000Y-82960000D02*
X48750000Y-82960000D01*
X84655000Y-85775000D02*
X81840000Y-82960000D01*
%TO.N,MIC*%
X137389700Y-72300000D02*
X134498600Y-69408900D01*
X98481100Y-69408900D02*
X97355000Y-70535000D01*
X138565000Y-72300000D02*
X137389700Y-72300000D01*
X134498600Y-69408900D02*
X98481100Y-69408900D01*
%TD*%
M02*
